<svg id="Calque_1" data-name="Calque 1" xmlns="http://www.w3.org/2000/svg" version="1.1" viewBox="0 0 174.8 181.9">
  <defs>
    <style>
      .cls-1 {
        fill: #FFFFFF;
        fill-rule: evenodd;
        stroke-width: 0px;
      }
    </style>
  </defs>
  <path class="cls-1" d="M89.5,149.2v-41.2h-10.8v-21.5h10.8v-14.2c0-2.8-.6-21.6,22.8-21.6h16.5v21.5h-14.3c-2.2,0-3.6,1.2-3.6,3.6v10.7h17.9l-3.6,21.5h-14.3v41.2h18c7.9,0,14.2-6.4,14.2-14.2V52.2c0-7.9-6.4-14.2-14.2-14.2H46c-7.9,0-14.2,6.4-14.2,14.2v82.8c0,7.8,6.3,14.2,14.2,14.2h43.5ZM46,30h82.9c12.2,0,22.2,9.9,22.2,22.2v82.8h0c0,12.3-9.9,22.2-22.2,22.2H46c-12.2,0-22.2-9.9-22.2-22.2h0V52.2c0-12.2,9.9-22.2,22.2-22.2"/>
</svg>