<svg id="Calque_1" data-name="Calque 1" xmlns="http://www.w3.org/2000/svg" version="1.1" viewBox="0 0 174.8 181.9">
  <defs>
    <style>
      .cls-1 {
        fill: #FFFFFF;
        fill-rule: evenodd;
        stroke-width: 0px;
      }
    </style>
  </defs>
  <path class="cls-1" d="M87.4,116c13.8,0,24.6-11.4,24.6-25.1s-10.8-25.1-24.6-25.1-24.6,11.4-24.6,25.1,10.8,25.1,24.6,25.1M132.8,53c0,4.3-3.4,7.8-7.7,7.8s-7.7-3.5-7.7-7.8,3.4-7.8,7.7-7.8,7.7,3.5,7.7,7.8M46,35.3c-7.9,0-14.2,6.4-14.2,14.2v82.8c0,7.8,6.4,14.2,14.2,14.2h82.9c7.9,0,14.2-6.4,14.2-14.2V49.5c0-7.9-6.4-14.2-14.2-14.2H46ZM46,27.4h82.9c12.2,0,22.2,9.9,22.2,22.2h0v82.8h0c0,12.3-9.9,22.2-22.2,22.2H46c-12.2,0-22.2-9.9-22.2-22.2h0V49.5h0c0-12.2,9.9-22.2,22.2-22.2M87.4,53.8c20.4,0,36.4,17,36.4,37.1s-16,37.1-36.4,37.1-36.4-17-36.4-37.1,16-37.1,36.4-37.1"/>
</svg>