<svg id="Calque_1" data-name="Calque 1" xmlns="http://www.w3.org/2000/svg" version="1.1" viewBox="0 0 174.8 181.9">
  <defs>
    <style>
      .cls-1 {
        fill: #FFFFFF;
        fill-rule: evenodd;
        stroke-width: 0px;
      }
    </style>
  </defs>
  <path class="cls-1" d="M48.7,35.3c-7.9,0-14.2,6.4-14.2,14.2v82.8c0,7.8,6.4,14.2,14.2,14.2h82.9c7.9,0,14.2-6.4,14.2-14.2V49.5c0-7.9-6.4-14.2-14.2-14.2H48.7ZM112.6,74.9c-9.9,0-16.1,5.4-17.3,9.1v-8.6h-19.5c.3,4.6,0,54.9,0,54.9h19.5v-29.7c0-1.7,0-3.3.4-4.5,1.3-3.3,4.2-6.7,9.4-6.7s9.8,5.1,9.8,12.5v28.4h19.6v-30.5c0-17-9.7-24.9-22-24.9M47.9,130.3h17.3v-54.9h-17.3v54.9ZM56.2,49.5c-6.4,0-10.6,4.1-10.6,9.5s4.1,9.5,10.3,9.5h.1c6.5,0,10.6-4.2,10.6-9.5-.1-5.4-4.1-9.5-10.4-9.5M48.7,27.4h82.9c12.2,0,22.2,9.9,22.2,22.2h0v82.8h0,0c0,12.3-9.9,22.2-22.2,22.2H48.7c-12.2,0-22.2-9.9-22.2-22.2h0V49.5h0c0-12.2,9.9-22.2,22.2-22.2"/>
</svg>