<svg id="Calque_1" data-name="Calque 1" xmlns="http://www.w3.org/2000/svg" version="1.1" viewBox="0 0 174.8 181.9">
  <defs>
    <style>
      .cls-1 {
        fill: none;
      }

      .cls-1, .cls-2, .cls-3 {
        stroke-width: 0px;
      }

      .cls-2 {
        fill-rule: evenodd;
      }

      .cls-2, .cls-3 {
        fill: #FFFFFF;
      }
    </style>
  </defs>
  <g>
    <path class="cls-1" d="M85.7,89.9c-5.8-7.8-11.7-15.6-17.5-23.4-.5-.6-.9-.8-1.7-.8-2.1,0-4.3,0-6.4,0-1.2,0-2.3,0-3.7,0,.2.4.4.5.5.7,7.1,9.4,14.2,18.8,21.3,28.3,9.2,12.2,18.3,24.4,27.5,36.6.2.3.8.6,1.2.6,2.3,0,4.6,0,6.9,0h3.3c-.4-.6-.8-1.1-1.1-1.5l-30.2-40.4Z"/>
    <path class="cls-3" d="M93.9,93.2c10-10.8,20-21.5,30.1-32.4-2.1,0-3.9,0-5.8,0-.4,0-.9.2-1.2.5-2.1,2.2-4.2,4.5-6.3,6.8-4.9,5.3-9.8,10.5-14.7,15.8-1.7,1.8-3.3,3.5-5,5.4-.2-.2-.3-.3-.4-.5-6.9-9.1-13.7-18.2-20.6-27.4-.3-.4-.6-.6-1.2-.6-7.2,0-14.4,0-21.6,0-.2,0-.5,0-.8,0,10.5,14.2,21,28.2,31.5,42.3-10.5,11.2-21,22.5-31.6,33.9,2.1,0,4,0,5.8,0,.6,0,1-.2,1.4-.6,3-3.2,5.9-6.4,8.9-9.6,5.9-6.4,11.9-12.7,17.8-19.1.2-.2.4-.3.6-.5.2.3.4.5.6.7,7.1,9.5,14.2,19,21.2,28.5.3.5.7.6,1.2.6,7.3,0,14.6,0,22,0,.2,0,.5,0,.8,0-11-14.7-21.9-29.2-32.9-43.8ZM116,130.3c.3.5.7.9,1.1,1.5h-3.3c-2.3,0-4.6,0-6.9,0-.4,0-.9-.3-1.2-.6-9.2-12.2-18.4-24.4-27.5-36.6-7.1-9.4-14.2-18.8-21.3-28.3-.1-.2-.2-.3-.5-.7,1.3,0,2.5,0,3.7,0,2.1,0,4.3,0,6.4,0,.8,0,1.2.2,1.7.8,5.8,7.8,11.7,15.6,17.5,23.4"/>
  </g>
  <path class="cls-2" d="M46,42.1c-7.9,0-14.2,6.4-14.2,14.2v82.8c0,7.8,6.4,14.2,14.2,14.2h82.9c7.9,0,14.2-6.4,14.2-14.2V56.4c0-7.9-6.4-14.2-14.2-14.2H46ZM46,34.2h82.9c12.2,0,22.2,9.9,22.2,22.2h0v82.8h0,0c0,12.3-9.9,22.2-22.2,22.2H46c-12.2,0-22.2-9.9-22.2-22.2h0V56.4h0c0-12.2,9.9-22.2,22.2-22.2"/>
</svg>